<svg width="348" height="348" viewBox="0 0 348 348" fill="none" xmlns="http://www.w3.org/2000/svg">
<path d="M155.385 46.4772C155.385 41.6113 151.441 37.6667 146.575 37.6667H39.943C35.077 37.6667 31.1325 41.6113 31.1325 46.4772V49.8852C31.1325 53.826 27.9378 57.0207 23.997 57.0207C19.131 57.0207 15.1865 60.9652 15.1865 65.8312V148.399H323.531V57.0199H165.929C160.105 57.0199 155.385 52.2996 155.385 46.4772Z" fill="#E45757"/>
<path d="M315.316 74.1289H34.7351V218.665H315.316V74.1289Z" fill="#EBF0F3"/>
<path d="M330.38 310.333H17.6202C7.88901 310.333 0 302.444 0 292.713V105.453C0 95.7219 7.88901 87.8329 17.6202 87.8329H206.83C214.067 87.8329 220.568 83.4083 223.222 76.6756L231.792 54.9392C234.446 48.2065 240.947 43.7819 248.184 43.7819H330.378C340.109 43.7819 347.999 51.6709 347.999 61.4021V292.713C348 302.444 340.111 310.333 330.38 310.333Z" fill="#F87171"/>
</svg>
