<svg width="348" height="348" viewBox="0 0 348 348" fill="none" xmlns="http://www.w3.org/2000/svg">
<path d="M235.827 0H55.6801C50.5548 0 46.3999 4.15481 46.3999 9.28014V338.72C46.3999 343.845 50.5548 348 55.6801 348H292.32C297.445 348 301.6 343.845 301.6 338.72V65.7732L235.827 0Z" fill="#60A5FA"/>
<path d="M235.826 65.7732H301.6L235.827 0L235.826 65.7732Z" fill="#3B82F6"/>
<path d="M126.533 102.037C124.965 100.218 122.225 100.011 120.411 101.579L89.2099 128.428L79.31 118.531C77.6149 116.836 74.8661 116.836 73.1732 118.531C71.4782 120.226 71.4782 122.971 73.1732 124.667L85.9193 137.412C86.7628 138.257 87.8745 138.683 88.9892 138.683C89.9939 138.683 91.0023 138.336 91.819 137.633L126.073 108.157C127.89 106.595 128.095 103.854 126.533 102.037Z" fill="#EBF0F3"/>
<path d="M126.533 160.655C124.965 158.835 122.225 158.629 120.411 160.197L89.2099 187.045L79.31 177.148C77.6149 175.453 74.8661 175.453 73.1732 177.148C71.4782 178.843 71.4782 181.589 73.1732 183.285L85.9193 196.03C86.7628 196.874 87.8745 197.301 88.9892 197.301C89.9939 197.301 91.0023 196.953 91.819 196.25L126.073 166.774C127.89 165.211 128.095 162.472 126.533 160.655Z" fill="#EBF0F3"/>
<path d="M125.137 220.187C123.651 218.462 121.054 218.267 119.335 219.753L89.759 245.202L80.3756 235.821C78.769 234.214 76.1628 234.214 74.5592 235.821C72.9525 237.428 72.9525 240.031 74.5592 241.637L86.6409 253.718C87.4405 254.519 88.4942 254.923 89.5502 254.923C90.5022 254.923 91.4586 254.594 92.2322 253.926L124.702 225.986C126.423 224.507 126.618 221.91 125.137 220.187Z" fill="#EBF0F3"/>
<path d="M124.724 279.075C123.261 277.379 120.707 277.186 119.016 278.649L89.921 303.684L80.6899 294.455C79.1093 292.874 76.5463 292.874 74.9679 294.455C73.3873 296.036 73.3873 298.596 74.9679 300.177L86.8534 312.061C87.6396 312.849 88.6763 313.246 89.7159 313.246C90.6523 313.246 91.5931 312.922 92.354 312.266L124.296 284.781C125.99 283.325 126.181 280.77 124.724 279.075Z" fill="#EBF0F3"/>
<path d="M276.08 104.539H146.16V116.139H276.08V104.539Z" fill="#EBF0F3"/>
<path d="M276.08 163.143H146.16V174.743H276.08V163.143Z" fill="#EBF0F3"/>
<path d="M276.08 221.745H146.16V233.346H276.08V221.745Z" fill="#EBF0F3"/>
<path d="M276.08 280.376H146.16V291.977H276.08V280.376Z" fill="#EBF0F3"/>
</svg>
